<svg xmlns="http://www.w3.org/2000/svg" xmlns:xlink="http://www.w3.org/1999/xlink" width="671pt" height="807pt" viewBox="0.00 0.00 671.00 807.00">
<g id="graph0" class="graph" transform="scale(1 1) rotate(0) translate(4 802.92)">
<title>G</title>
<polygon fill="white" stroke="none" points="-4,4 -4,-802.92 666.51,-802.92 666.51,4 -4,4"/>
<g id="clust1" class="cluster">
<title>cluster_dashboard</title>
<polygon fill="lightgrey" stroke="lightgrey" points="8.36,-8 8.36,-790.92 378.36,-790.92 378.36,-8 8.36,-8"/>
<text xml:space="preserve" text-anchor="middle" x="193.36" y="-774.32" font-family="Times,serif" font-size="14.00">Dashboard Gestore (Area Protetta)</text>
</g>
<!-- start -->
<g id="node1" class="node">
<title>start</title>
<polygon fill="white" stroke="none" points="0.72,-698.03 0,-698.03 0,-696.59 0.72,-696.59 0.72,-698.03"/>
</g>
<!-- S0 -->
<g id="node2" class="node">
<title>S0</title>
<ellipse fill="white" stroke="black" stroke-width="2.5" cx="428.36" cy="-213.18" rx="42.12" ry="42.12"/>
<text xml:space="preserve" text-anchor="middle" x="428.36" y="-217.38" font-family="Helvetica,sans-Serif" font-size="14.00">S0:</text>
<text xml:space="preserve" text-anchor="middle" x="428.36" y="-200.58" font-family="Helvetica,sans-Serif" font-size="14.00">LOGIN</text>
</g>
<!-- S0&#45;&gt;S0 -->
<g id="edge3" class="edge">
<title>S0-&gt;S0</title>
<path fill="none" stroke="black" d="M469.1,-227.43C480.11,-226.68 488.48,-221.93 488.48,-213.18 488.48,-207.72 485.21,-203.81 480.07,-201.47"/>
<polygon fill="black" stroke="black" points="481.11,-198.12 470.58,-199.28 479.53,-204.94 481.11,-198.12"/>
<text xml:space="preserve" text-anchor="middle" x="526.83" y="-210.18" font-family="Helvetica,sans-Serif" font-size="10.00">credenziali errate</text>
</g>
<!-- S1 -->
<g id="node3" class="node">
<title>S1</title>
<ellipse fill="white" stroke="black" cx="504.36" cy="-57.3" rx="55.32" ry="55.32"/>
<text xml:space="preserve" text-anchor="middle" x="504.36" y="-69.9" font-family="Helvetica,sans-Serif" font-size="14.00">S1:</text>
<text xml:space="preserve" text-anchor="middle" x="504.36" y="-53.1" font-family="Helvetica,sans-Serif" font-size="14.00">CHECK</text>
<text xml:space="preserve" text-anchor="middle" x="504.36" y="-36.3" font-family="Helvetica,sans-Serif" font-size="14.00">SESSION</text>
</g>
<!-- S0&#45;&gt;S1 -->
<g id="edge4" class="edge">
<title>S0-&gt;S1</title>
<path fill="none" stroke="black" d="M457.11,-180.76C466.27,-169.41 475.74,-156.06 482.36,-142.62 485.43,-136.38 488.11,-129.67 490.43,-122.85"/>
<polygon fill="black" stroke="black" points="493.7,-124.14 493.35,-113.55 487.02,-122.04 493.7,-124.14"/>
<text xml:space="preserve" text-anchor="middle" x="525.49" y="-133.62" font-family="Helvetica,sans-Serif" font-size="10.00">credenziali valide</text>
</g>
<!-- S1&#45;&gt;S0 -->
<g id="edge1" class="edge">
<title>S1-&gt;S0</title>
<path fill="none" stroke="black" d="M454.44,-81.8C435.37,-93.57 415.67,-109.81 405.08,-130.62 399.67,-141.26 400.02,-153.35 403.03,-164.89"/>
<polygon fill="black" stroke="black" points="399.68,-165.9 406.15,-174.29 406.32,-163.7 399.68,-165.9"/>
<text xml:space="preserve" text-anchor="middle" x="443.72" y="-133.62" font-family="Helvetica,sans-Serif" font-size="10.00">cookie non valido</text>
</g>
<!-- S2 -->
<g id="node4" class="node">
<title>S2</title>
<ellipse fill="white" stroke="black" cx="218.36" cy="-697.31" rx="60.82" ry="60.82"/>
<text xml:space="preserve" text-anchor="middle" x="218.36" y="-709.91" font-family="Helvetica,sans-Serif" font-size="14.00">S2:</text>
<text xml:space="preserve" text-anchor="middle" x="218.36" y="-693.11" font-family="Helvetica,sans-Serif" font-size="14.00">AGGIUNGI</text>
<text xml:space="preserve" text-anchor="middle" x="218.36" y="-676.31" font-family="Helvetica,sans-Serif" font-size="14.00">OPERA</text>
</g>
<!-- S1&#45;&gt;S2 -->
<g id="edge2" class="edge">
<title>S1-&gt;S2</title>
<path fill="none" stroke="black" d="M543.38,-96.99C568.45,-126.07 596.36,-168.3 596.36,-212.18 596.36,-529.78 596.36,-529.78 596.36,-529.78 596.36,-661.9 400.6,-690.1 290.83,-695.53"/>
<polygon fill="black" stroke="black" points="290.86,-692.03 281.02,-695.96 291.17,-699.02 290.86,-692.03"/>
<text xml:space="preserve" text-anchor="middle" x="629.44" y="-364.41" font-family="Helvetica,sans-Serif" font-size="10.00">cookie validato</text>
</g>
<!-- S2&#45;&gt;S0 -->
<g id="edge5" class="edge">
<title>S2-&gt;S0</title>
<path fill="none" stroke="black" d="M270.4,-665.55C299.85,-646.23 335.78,-619.18 361.36,-588.49 414.66,-524.55 426.18,-502.08 445.36,-421.07 457.65,-369.19 450.05,-308.18 441.46,-265.92"/>
<polygon fill="black" stroke="black" points="444.91,-265.32 439.4,-256.27 438.06,-266.78 444.91,-265.32"/>
<text xml:space="preserve" text-anchor="middle" x="454.25" y="-442.07" font-family="Helvetica,sans-Serif" font-size="10.00">logout</text>
</g>
<!-- S2&#45;&gt;S2 -->
<g id="edge9" class="edge">
<title>S2-&gt;S2</title>
<path fill="none" stroke="black" d="M277.48,-712.5C289,-710.74 297.18,-705.67 297.18,-697.31 297.18,-691.95 293.82,-687.94 288.38,-685.29"/>
<polygon fill="black" stroke="black" points="289.51,-681.98 278.93,-682.54 287.55,-688.7 289.51,-681.98"/>
<text xml:space="preserve" text-anchor="middle" x="333.59" y="-694.31" font-family="Helvetica,sans-Serif" font-size="10.00">Submit Aggiungi</text>
</g>
<!-- S3 -->
<g id="node5" class="node">
<title>S3</title>
<ellipse fill="white" stroke="black" cx="96.36" cy="-528.78" rx="59.71" ry="59.71"/>
<text xml:space="preserve" text-anchor="middle" x="96.36" y="-541.38" font-family="Helvetica,sans-Serif" font-size="14.00">S3:</text>
<text xml:space="preserve" text-anchor="middle" x="96.36" y="-524.58" font-family="Helvetica,sans-Serif" font-size="14.00">MODIFICA</text>
<text xml:space="preserve" text-anchor="middle" x="96.36" y="-507.78" font-family="Helvetica,sans-Serif" font-size="14.00">OPERA</text>
</g>
<!-- S2&#45;&gt;S3 -->
<g id="edge12" class="edge">
<title>S2-&gt;S3</title>
<path fill="none" stroke="black" d="M175.96,-638.44C163.68,-621.67 150.29,-603.39 138.05,-586.69"/>
<polygon fill="black" stroke="black" points="173.12,-640.48 181.85,-646.47 178.76,-636.34 173.12,-640.48"/>
<polygon fill="black" stroke="black" points="141.02,-584.81 132.28,-578.82 135.37,-588.95 141.02,-584.81"/>
<text xml:space="preserve" text-anchor="middle" x="206.04" y="-609.49" font-family="Helvetica,sans-Serif" font-size="10.00">Modifica ↔ Aggiungi</text>
</g>
<!-- S4 -->
<g id="node6" class="node">
<title>S4</title>
<ellipse fill="white" stroke="black" cx="228.36" cy="-367.41" rx="53.66" ry="53.66"/>
<text xml:space="preserve" text-anchor="middle" x="228.36" y="-380.01" font-family="Helvetica,sans-Serif" font-size="14.00">S4:</text>
<text xml:space="preserve" text-anchor="middle" x="228.36" y="-363.21" font-family="Helvetica,sans-Serif" font-size="14.00">RIMUOVI</text>
<text xml:space="preserve" text-anchor="middle" x="228.36" y="-346.41" font-family="Helvetica,sans-Serif" font-size="14.00">OPERA</text>
</g>
<!-- S2&#45;&gt;S4 -->
<g id="edge13" class="edge">
<title>S2-&gt;S4</title>
<path fill="none" stroke="black" d="M251.14,-632.96C252.81,-628.15 254.25,-623.29 255.36,-618.49 273.38,-540.81 272.79,-517.31 257.36,-439.07 256.57,-435.07 255.55,-431 254.37,-426.94"/>
<polygon fill="black" stroke="black" points="247.99,-631.4 247.72,-641.99 254.54,-633.88 247.99,-631.4"/>
<polygon fill="black" stroke="black" points="257.79,-426.16 251.37,-417.73 251.13,-428.33 257.79,-426.16"/>
<text xml:space="preserve" text-anchor="middle" x="313.37" y="-525.78" font-family="Helvetica,sans-Serif" font-size="10.00">Rimuovi ↔ Aggiungi</text>
</g>
<!-- S5 -->
<g id="node7" class="node">
<title>S5</title>
<ellipse fill="white" stroke="black" cx="116.36" cy="-213.18" rx="52.56" ry="52.56"/>
<text xml:space="preserve" text-anchor="middle" x="116.36" y="-225.78" font-family="Helvetica,sans-Serif" font-size="14.00">S5:</text>
<text xml:space="preserve" text-anchor="middle" x="116.36" y="-208.98" font-family="Helvetica,sans-Serif" font-size="14.00">TAB</text>
<text xml:space="preserve" text-anchor="middle" x="116.36" y="-192.18" font-family="Helvetica,sans-Serif" font-size="14.00">REPORT</text>
</g>
<!-- S2&#45;&gt;S5 -->
<g id="edge14" class="edge">
<title>S2-&gt;S5</title>
<path fill="none" stroke="black" d="M148.99,-676.92C105.73,-660.84 53.47,-633.21 27.36,-588.49 -33.12,-484.91 35.04,-342.47 81.13,-266.66"/>
<polygon fill="black" stroke="black" points="147.75,-680.19 158.35,-680.25 150.1,-673.6 147.75,-680.19"/>
<polygon fill="black" stroke="black" points="83.83,-268.94 86.11,-258.59 77.88,-265.26 83.83,-268.94"/>
<text xml:space="preserve" text-anchor="middle" x="49.98" y="-442.07" font-family="Helvetica,sans-Serif" font-size="10.00">Report ↔ Aggiungi</text>
</g>
<!-- S3&#45;&gt;S0 -->
<g id="edge6" class="edge">
<title>S3-&gt;S0</title>
<path fill="none" stroke="black" d="M152.31,-507.44C233.65,-477.74 375.41,-425.56 379.36,-421.07 399.23,-398.48 413.67,-320.75 421.53,-267.28"/>
<polygon fill="black" stroke="black" points="424.99,-267.82 422.94,-257.43 418.06,-266.83 424.99,-267.82"/>
<text xml:space="preserve" text-anchor="middle" x="427.46" y="-364.41" font-family="Helvetica,sans-Serif" font-size="10.00">logout</text>
</g>
<!-- S3&#45;&gt;S3 -->
<g id="edge10" class="edge">
<title>S3-&gt;S3</title>
<path fill="none" stroke="black" d="M154.65,-543.78C166.01,-542.04 174.07,-537.04 174.07,-528.78 174.07,-523.49 170.76,-519.54 165.4,-516.93"/>
<polygon fill="black" stroke="black" points="166.68,-513.66 156.1,-514.21 164.72,-520.37 166.68,-513.66"/>
<text xml:space="preserve" text-anchor="middle" x="209.64" y="-525.78" font-family="Helvetica,sans-Serif" font-size="10.00">Submit Modifica</text>
</g>
<!-- S3&#45;&gt;S4 -->
<g id="edge15" class="edge">
<title>S3-&gt;S4</title>
<path fill="none" stroke="black" d="M141.46,-473.33C156.35,-455.35 172.82,-435.47 187.38,-417.89"/>
<polygon fill="black" stroke="black" points="138.83,-471.01 135.15,-480.95 144.23,-475.48 138.83,-471.01"/>
<polygon fill="black" stroke="black" points="189.71,-420.56 193.39,-410.63 184.32,-416.1 189.71,-420.56"/>
<text xml:space="preserve" text-anchor="middle" x="209.94" y="-442.07" font-family="Helvetica,sans-Serif" font-size="10.00">Rimuovi ↔ Modifica</text>
</g>
<!-- S3&#45;&gt;S5 -->
<g id="edge16" class="edge">
<title>S3-&gt;S5</title>
<path fill="none" stroke="black" d="M116.76,-460.65C117.38,-457.43 117.92,-454.22 118.36,-451.07 119.1,-445.79 121.11,-443.64 118.36,-439.07 109.5,-424.39 93.08,-435.76 84.22,-421.07 59.58,-380.23 76.8,-360.87 84.22,-313.75 86.31,-300.43 89.9,-286.47 93.93,-273.35"/>
<polygon fill="black" stroke="black" points="113.4,-459.62 114.72,-470.14 120.24,-461.1 113.4,-459.62"/>
<polygon fill="black" stroke="black" points="97.2,-274.6 96.93,-264.01 90.54,-272.46 97.2,-274.6"/>
<text xml:space="preserve" text-anchor="middle" x="124.79" y="-364.41" font-family="Helvetica,sans-Serif" font-size="10.00">Report ↔ Modifica</text>
</g>
<!-- S4&#45;&gt;S0 -->
<g id="edge7" class="edge">
<title>S4-&gt;S0</title>
<path fill="none" stroke="black" d="M275.06,-340.29C306.81,-321.51 348.95,-294.5 382.36,-265.75 386.14,-262.49 389.92,-258.93 393.58,-255.25"/>
<polygon fill="black" stroke="black" points="395.96,-257.82 400.33,-248.17 390.9,-252.99 395.96,-257.82"/>
<text xml:space="preserve" text-anchor="middle" x="372.58" y="-286.75" font-family="Helvetica,sans-Serif" font-size="10.00">logout</text>
</g>
<!-- S4&#45;&gt;S4 -->
<g id="edge11" class="edge">
<title>S4-&gt;S4</title>
<path fill="none" stroke="black" d="M280.54,-381.54C291.83,-380.16 300.02,-375.45 300.02,-367.41 300.02,-362.26 296.66,-358.48 291.27,-356.06"/>
<polygon fill="black" stroke="black" points="292.56,-352.78 282,-353.66 290.81,-359.55 292.56,-352.78"/>
<text xml:space="preserve" text-anchor="middle" x="335.03" y="-364.41" font-family="Helvetica,sans-Serif" font-size="10.00">Submit Rimuovi</text>
</g>
<!-- S4&#45;&gt;S5 -->
<g id="edge17" class="edge">
<title>S4-&gt;S5</title>
<path fill="none" stroke="black" d="M190.14,-314.47C178.45,-298.57 165.59,-281.1 153.94,-265.26"/>
<polygon fill="black" stroke="black" points="187.22,-316.4 195.97,-322.38 192.86,-312.25 187.22,-316.4"/>
<polygon fill="black" stroke="black" points="156.88,-263.35 148.13,-257.37 151.24,-267.49 156.88,-263.35"/>
<text xml:space="preserve" text-anchor="middle" x="215.73" y="-286.75" font-family="Helvetica,sans-Serif" font-size="10.00">Report ↔ Rimuovi</text>
</g>
<!-- S5&#45;&gt;S0 -->
<g id="edge8" class="edge">
<title>S5-&gt;S0</title>
<path fill="none" stroke="black" d="M169.29,-213.18C226.21,-213.18 316.29,-213.18 373.83,-213.18"/>
<polygon fill="black" stroke="black" points="373.73,-216.68 383.73,-213.18 373.73,-209.68 373.73,-216.68"/>
<text xml:space="preserve" text-anchor="middle" x="277.58" y="-219.18" font-family="Helvetica,sans-Serif" font-size="10.00">logout</text>
</g>
<!-- S5_1 -->
<g id="node8" class="node">
<title>S5_1</title>
<ellipse fill="white" stroke="black" cx="99.36" cy="-57.3" rx="58.07" ry="41.3"/>
<text xml:space="preserve" text-anchor="middle" x="99.36" y="-69.9" font-family="Helvetica,sans-Serif" font-size="14.00">S5.1:</text>
<text xml:space="preserve" text-anchor="middle" x="99.36" y="-53.1" font-family="Helvetica,sans-Serif" font-size="14.00">REPORT</text>
<text xml:space="preserve" text-anchor="middle" x="99.36" y="-36.3" font-family="Helvetica,sans-Serif" font-size="14.00">ACQUISTI</text>
</g>
<!-- S5&#45;&gt;S5_1 -->
<g id="edge18" class="edge">
<title>S5-&gt;S5_1</title>
<path fill="none" stroke="black" d="M73.57,-182.44C61.31,-171.48 49.5,-157.95 42.9,-142.62 36.04,-126.67 42.83,-110.51 53.77,-96.65"/>
<polygon fill="black" stroke="black" points="56.09,-99.32 60.04,-89.49 50.82,-94.71 56.09,-99.32"/>
<text xml:space="preserve" text-anchor="middle" x="72.63" y="-133.62" font-family="Helvetica,sans-Serif" font-size="10.00">Click Acquisti</text>
</g>
<!-- S5_1&#45;&gt;S5 -->
<g id="edge19" class="edge">
<title>S5_1-&gt;S5</title>
<path fill="none" stroke="black" d="M103.84,-98.89C105.55,-114.37 107.55,-132.41 109.43,-149.47"/>
<polygon fill="black" stroke="black" points="105.91,-149.45 110.49,-159.01 112.87,-148.69 105.91,-149.45"/>
<text xml:space="preserve" text-anchor="middle" x="135.6" y="-133.62" font-family="Helvetica,sans-Serif" font-size="10.00">Cambio Tab</text>
</g>
</g>
</svg>